name D:\school\WTK\thesis\model\3dpredictsim\Results\MidTarsalJoint\Fal_s1_bCst_PF_Natali2010_ls150_MT_k1500_MTP_T5_ig24_PFx2.mot
datacolumns 128
datarows 4
range 1.11549618 1.14896107
endheader
time	pelvis_tilt	pelvis_list	pelvis_rotation	pelvis_tx	pelvis_ty	pelvis_tz	hip_flexion_l	hip_adduction_l	hip_rotation_l	hip_flexion_r	hip_adduction_r	hip_rotation_r	knee_angle_l	knee_angle_r	ankle_angle_l	ankle_angle_r	subtalar_angle_l	subtalar_angle_r	mtj_angle_l	mtj_angle_r	mtp_angle_l	mtp_angle_r	lumbar_extension	lumbar_bending	lumbar_rotation	arm_flex_l	arm_add_l	arm_rot_l	arm_flex_r	arm_add_r	arm_rot_r	elbow_flex_l	elbow_flex_r	pro_sup_l	pro_sup_r	glut_med1_l/activation	glut_med2_l/activation	glut_med3_l/activation	glut_min1_l/activation	glut_min2_l/activation	glut_min3_l/activation	semimem_l/activation	semiten_l/activation	bifemlh_l/activation	bifemsh_l/activation	sar_l/activation	add_long_l/activation	add_brev_l/activation	add_mag1_l/activation	add_mag2_l/activation	add_mag3_l/activation	tfl_l/activation	pect_l/activation	grac_l/activation	glut_max1_l/activation	glut_max2_l/activation	glut_max3_l/activation	iliacus_l/activation	psoas_l/activation	quad_fem_l/activation	gem_l/activation	peri_l/activation	rect_fem_l/activation	vas_med_l/activation	vas_int_l/activation	vas_lat_l/activation	med_gas_l/activation	lat_gas_l/activation	soleus_l/activation	tib_post_l/activation	flex_dig_l/activation	flex_hal_l/activation	tib_ant_l/activation	per_brev_l/activation	per_long_l/activation	per_tert_l/activation	ext_dig_l/activation	ext_hal_l/activation	ercspn_l/activation	intobl_l/activation	extobl_l/activation	glut_med1_r/activation	glut_med2_r/activation	glut_med3_r/activation	glut_min1_r/activation	glut_min2_r/activation	glut_min3_r/activation	semimem_r/activation	semiten_r/activation	bifemlh_r/activation	bifemsh_r/activation	sar_r/activation	add_long_r/activation	add_brev_r/activation	add_mag1_r/activation	add_mag2_r/activation	add_mag3_r/activation	tfl_r/activation	pect_r/activation	grac_r/activation	glut_max1_r/activation	glut_max2_r/activation	glut_max3_r/activation	iliacus_r/activation	psoas_r/activation	quad_fem_r/activation	gem_r/activation	peri_r/activation	rect_fem_r/activation	vas_med_r/activation	vas_int_r/activation	vas_lat_r/activation	med_gas_r/activation	lat_gas_r/activation	soleus_r/activation	tib_post_r/activation	flex_dig_r/activation	flex_hal_r/activation	tib_ant_r/activation	per_brev_r/activation	per_long_r/activation	per_tert_r/activation	ext_dig_r/activation	ext_hal_r/activation	ercspn_r/activation	intobl_r/activation	extobl_r/activation	
          1.11549618	         -2.93017641	         -2.04577995	          4.81680847	          1.39437023	          0.91975694	         -0.00195509	        -17.50989014	         -0.86211722	          6.29073251	         29.67584239	          3.41002226	         -1.78360325	         -5.49740549	        -12.22645331	          0.16293969	          6.38527542	          6.96773892	         -5.66946196	          1.17311570	         -0.00708834	         18.36728446	         -0.89007198	         -2.15636135	          0.22742196	         -1.89499103	          5.47679359	        -13.45165546	         16.57633710	         -4.60235695	        -13.46408765	          6.83549645	         32.74628641	         16.65884567	         86.51662706	         86.51662706	          0.31782715	          0.11271619	          0.08206822	          0.34037267	          0.21511838	          0.11729377	          0.05000222	          0.05000058	          0.05000038	          0.06829490	          0.11716572	          0.05000046	          0.05000032	          0.05000043	          0.05000121	          0.05000096	          0.32916273	          0.05000165	          0.05000125	          0.05006096	          0.05000584	          0.05000255	          0.42118528	          0.65345592	          0.05000083	          0.05000155	          0.06569220	          0.22275358	          0.05000108	          0.05000076	          0.05000074	          0.31869701	          0.43705028	          0.31777604	          0.28924711	          0.31915374	          0.39268579	          0.05000009	          0.05227881	          0.13391525	          0.05000047	          0.05000013	          0.05000048	          0.05000003	          0.05000004	          0.05000009	          0.10107577	          0.05000031	          0.05929589	          0.05000022	          0.05000029	          0.05000130	          0.20815245	          0.05929609	          0.05929703	          0.05000048	          0.05000165	          0.09979837	          0.18139840	          0.22096344	          0.16184931	          0.11896652	          0.05929589	          0.05023448	          0.05933736	          0.07031720	          0.07032036	          0.12110140	          0.05000026	          0.05000034	          0.26990246	          0.05034925	          0.05000074	          0.05000109	          0.10341175	          0.10312534	          0.08969906	          0.05394612	          0.05000202	          0.05929547	          0.05000014	          0.05000079	          0.05000079	          0.50253411	          0.30541420	          0.18667455	          0.19532976	          0.48349496	          0.22646955	          0.06778866	          0.12372796	          0.11684622	
          1.12665114	         -2.92820985	         -2.14520916	          5.11989285	          1.41094795	          0.91872777	         -0.00175818	        -17.43003046	         -1.16283634	          6.05788573	         29.10127934	          3.74652299	         -1.57483329	         -7.33170936	        -12.07478679	         -0.44488267	          5.85842192	          7.86311036	         -6.04790116	          0.95326702	          0.00302082	         19.55849155	         -0.88569844	         -1.97105901	          0.43778191	         -1.96238941	          5.26028406	        -13.45905145	         16.94397103	         -5.46529662	        -13.46548804	          6.54862061	         33.89346642	         16.31491999	         86.51662706	         86.51662706	          0.26800175	          0.09504573	          0.06920248	          0.28701277	          0.18139440	          0.09890572	          0.05000326	          0.05000083	          0.05000077	          0.05758847	          0.09879813	          0.09964143	          0.05594732	          0.05003046	          0.05001406	          0.05000329	          0.27756023	          0.07554861	          0.05001413	          0.05000200	          0.05000261	          0.05000256	          0.35515624	          0.60112950	          0.05000093	          0.05002512	          0.05929591	          0.19136162	          0.05000374	          0.14411482	          0.12691896	          0.26873490	          0.36853403	          0.28441750	          0.27951503	          0.27336152	          0.36091801	          0.05000010	          0.05000294	          0.13703504	          0.05000049	          0.05000013	          0.05000049	          0.05000014	          0.07031970	          0.05000011	          0.08523035	          0.05929343	          0.05000046	          0.05929667	          0.05929575	          0.05000162	          0.18284380	          0.05000104	          0.05000128	          0.05000153	          0.05000350	          0.09435628	          0.15296114	          0.22710433	          0.18742549	          0.12221642	          0.05000059	          0.05001121	          0.05003600	          0.05929436	          0.05929644	          0.14017761	          0.05000244	          0.05000252	          0.51978660	          0.13914677	          0.05001039	          0.07031997	          0.17976197	          0.18025727	          0.15473405	          0.05000003	          0.05000007	          0.05000001	          0.05000058	          0.05000167	          0.05000121	          0.55428165	          0.26236702	          0.20150805	          0.34982479	          0.50636598	          0.19829117	          0.05716150	          0.10433116	          0.09852827	
          1.13780611	         -2.92252340	         -2.24148784	          5.40133879	          1.42784033	          0.91775529	         -0.00157043	        -17.27476364	         -1.46145282	          5.81711765	         28.42767796	          4.02633468	         -1.31501406	         -9.29510897	        -12.50022962	         -1.21384666	          5.24732140	          8.73049852	         -6.44303046	          0.69433682	         -0.06169549	         20.68396321	         -0.91428149	         -1.76437844	          0.65233575	         -2.01972715	          4.96852017	        -13.46638826	         17.24555768	         -6.36743264	        -13.46916483	          6.29660655	         35.01983227	         16.03443894	         86.51662706	         86.51662706	          0.31365779	          0.08014547	          0.05835373	          0.24201825	          0.15295733	          0.08340035	          0.05000253	          0.05000111	          0.05000110	          0.05000030	          0.08331004	          0.14038388	          0.07952805	          0.05929800	          0.05927079	          0.05929437	          0.23404758	          0.08336297	          0.05002385	          0.05003893	          0.05002683	          0.05012727	          0.29947865	          0.56705441	          0.05395550	          0.05000190	          0.05000034	          0.16136194	          0.14863818	          0.12152491	          0.10702410	          0.22660535	          0.31075899	          0.23982939	          0.23569634	          0.23050737	          0.30433764	          0.05000005	          0.05000131	          0.16186286	          0.05000021	          0.05000006	          0.05000026	          0.05250590	          0.05929576	          0.05000213	          0.25146857	          0.05000015	          0.25640116	          0.05000091	          0.05000037	          0.19085049	          0.16833379	          0.05000069	          0.06910692	          0.05000017	          0.05000072	          0.08339536	          0.23255502	          0.19150232	          0.15804403	          0.13921586	          0.05000103	          0.05935444	          0.09948618	          0.05000032	          0.05000075	          0.11820319	          0.05492120	          0.05000164	          0.43829976	          0.11733292	          0.14437753	          0.05929595	          0.15158088	          0.15199854	          0.13047655	          0.05929585	          0.05929632	          0.05929578	          0.05929582	          0.05929498	          0.05001829	          0.46738704	          0.29147023	          0.16991779	          0.29498340	          0.53043373	          0.16720517	          0.05000009	          0.11280153	          0.08308201	
          1.14896107	         -2.91484467	         -2.33841381	          5.65319208	          1.44488806	          0.91684511	         -0.00137378	        -17.02693185	         -1.75772883	          5.57516698	         27.65386243	          4.26699964	         -1.04742921	        -11.39670800	        -12.97738940	         -2.15636367	          4.74273888	          9.54844800	         -6.82986749	          0.42927454	         -0.05121454	         21.66865537	         -0.90425766	         -1.55239816	          0.87495151	         -2.06809559	          4.62240013	        -13.47523747	         17.48535821	         -7.26790301	        -13.47569441	          6.09517010	         36.11719402	         15.79153678	         86.51662706	         86.51662706	          0.29898704	          0.06758114	          0.05000019	          0.33629239	          0.12897837	          0.07032578	          0.05000400	          0.05000039	          0.05000031	          0.05000053	          0.07025053	          0.14309633	          0.06706097	          0.05000271	          0.05000173	          0.05000114	          0.21969299	          0.07030807	          0.05000133	          0.05000244	          0.05000166	          0.05000121	          0.25252959	          0.52871966	          0.05000023	          0.05000151	          0.05000100	          0.13791613	          0.12534861	          0.10247832	          0.13908761	          0.19108044	          0.26204134	          0.20223134	          0.19874642	          0.19437107	          0.25662692	          0.05000006	          0.08566134	          0.15635061	          0.05000040	          0.05000023	          0.05000038	          0.06629687	          0.05000003	          0.05000006	          0.30550258	          0.26311041	          0.32973244	          0.15245157	          0.19489943	          0.16093221	          0.14194418	          0.08154131	          0.05827334	          0.08339292	          0.05008149	          0.07032155	          0.19609744	          0.16148077	          0.13326792	          0.15186165	          0.05000089	          0.05005000	          0.08389076	          0.20408818	          0.15622586	          0.12609860	          0.05000017	          0.05000023	          0.36958766	          0.09893902	          0.12174389	          0.05000023	          0.12781774	          0.12816997	          0.11002191	          0.05000025	          0.05000065	          0.05000006	          0.05000012	          0.05000029	          0.05000039	          0.59158977	          0.34789440	          0.19185206	          0.52163476	          0.56375632	          0.27218933	          0.07554213	          0.10124972	          0.07005726	
